<?xml version="1.0" standalone="no"?><svg xmlns="http://www.w3.org/2000/svg" viewBox="0 0 1440 320"><path fill="#5000ca" fill-opacity="1" d="M0,160L8.3,181.3C16.6,203,33,245,50,240C66.2,235,83,181,99,186.7C115.9,192,132,256,149,266.7C165.5,277,182,235,199,181.3C215.2,128,232,64,248,80C264.8,96,281,192,298,224C314.5,256,331,224,348,181.3C364.1,139,381,85,397,53.3C413.8,21,430,11,447,16C463.4,21,480,43,497,64C513.1,85,530,107,546,138.7C562.8,171,579,213,596,240C612.4,267,629,277,646,256C662.1,235,679,181,695,176C711.7,171,728,213,745,234.7C761.4,256,778,256,794,256C811,256,828,256,844,234.7C860.7,213,877,171,894,154.7C910.3,139,927,149,943,149.3C960,149,977,139,993,154.7C1009.7,171,1026,213,1043,197.3C1059.3,181,1076,107,1092,101.3C1109,96,1126,160,1142,202.7C1158.6,245,1175,267,1192,272C1208.3,277,1225,267,1241,234.7C1257.9,203,1274,149,1291,112C1307.6,75,1324,53,1341,69.3C1357.2,85,1374,139,1390,186.7C1406.9,235,1423,277,1432,298.7L1440,320L1440,0L1431.7,0C1423.4,0,1407,0,1390,0C1373.8,0,1357,0,1341,0C1324.1,0,1308,0,1291,0C1274.5,0,1258,0,1241,0C1224.8,0,1208,0,1192,0C1175.2,0,1159,0,1142,0C1125.5,0,1109,0,1092,0C1075.9,0,1059,0,1043,0C1026.2,0,1010,0,993,0C976.6,0,960,0,943,0C926.9,0,910,0,894,0C877.2,0,861,0,844,0C827.6,0,811,0,794,0C777.9,0,761,0,745,0C728.3,0,712,0,695,0C678.6,0,662,0,646,0C629,0,612,0,596,0C579.3,0,563,0,546,0C529.7,0,513,0,497,0C480,0,463,0,447,0C430.3,0,414,0,397,0C380.7,0,364,0,348,0C331,0,314,0,298,0C281.4,0,265,0,248,0C231.7,0,215,0,199,0C182.1,0,166,0,149,0C132.4,0,116,0,99,0C82.8,0,66,0,50,0C33.1,0,17,0,8,0L0,0Z" data-darkreader-inline-fill="" style="--darkreader-inline-fill:#36008a;"></path></svg>